<mxfile host="Electron" modified="2023-05-30T09:03:20.225Z" agent="Mozilla/5.0 (Windows NT 10.0; Win64; x64) AppleWebKit/537.36 (KHTML, like Gecko) draw.io/21.2.8 Chrome/112.0.5615.165 Electron/24.2.0 Safari/537.36" etag="RrFYdWU3N1FNJ9zEVh4R" version="21.2.8" type="device">
  <diagram name="第 1 页" id="SEkag_I0rSbZ3cbGkM_X">
    <mxGraphModel dx="1101" dy="832" grid="1" gridSize="10" guides="1" tooltips="1" connect="1" arrows="1" fold="1" page="1" pageScale="1" pageWidth="1169" pageHeight="827" math="0" shadow="0">
      <root>
        <mxCell id="0" />
        <mxCell id="1" parent="0" />
        <mxCell id="qeAfjZBKAGT_agbKlzHL-1" style="vsdxID=12;fillColor=#FFFFFF;gradientColor=none;shape=stencil(UzV2Ls5ILEhVNTIoLinKz04tz0wpyVA1dlE1MsrMy0gtyiwBslSNXVWNndPyi1LTi/JL81Ig/IJEkEoQKze/DGRCBUSfoYEBSI+RQSWUb6pnaQwWcYMoz8nMw6PcALdSMhXCbIAqBTIQTof4GlkO3ZtAIUgQGbsCAA==);strokeColor=#000000;points=[];labelBackgroundColor=#ffffff;rounded=0;html=1;whiteSpace=wrap;" vertex="1" parent="1">
          <mxGeometry x="60" y="53" width="450" height="240" as="geometry" />
        </mxCell>
        <mxCell id="qeAfjZBKAGT_agbKlzHL-2" style="vsdxID=165;edgeStyle=none;startArrow=none;endArrow=none;startSize=5;endSize=5;strokeColor=#000000;spacingTop=0;spacingBottom=0;spacingLeft=0;spacingRight=0;verticalAlign=middle;html=1;labelBackgroundColor=none;rounded=0;" edge="1" parent="1">
          <mxGeometry relative="1" as="geometry">
            <Array as="points" />
            <mxPoint x="60" y="293" as="sourcePoint" />
            <mxPoint x="77" y="293" as="targetPoint" />
          </mxGeometry>
        </mxCell>
        <mxCell id="qeAfjZBKAGT_agbKlzHL-3" style="vsdxID=125;edgeStyle=none;startArrow=none;endArrow=none;startSize=5;endSize=5;strokeColor=#54426a;spacingTop=0;spacingBottom=0;spacingLeft=0;spacingRight=0;verticalAlign=middle;html=1;labelBackgroundColor=none;rounded=0;" edge="1" parent="1">
          <mxGeometry relative="1" as="geometry">
            <Array as="points" />
            <mxPoint x="99" y="163" as="sourcePoint" />
            <mxPoint x="99" y="333" as="targetPoint" />
          </mxGeometry>
        </mxCell>
        <mxCell id="qeAfjZBKAGT_agbKlzHL-4" style="vsdxID=145;edgeStyle=none;startArrow=none;endArrow=none;startSize=5;endSize=5;strokeColor=#54426a;spacingTop=0;spacingBottom=0;spacingLeft=0;spacingRight=0;verticalAlign=middle;html=1;labelBackgroundColor=#ffffff;rounded=0;" edge="1" parent="1">
          <mxGeometry relative="1" as="geometry">
            <mxPoint as="offset" />
            <Array as="points" />
            <mxPoint x="99" y="333" as="sourcePoint" />
            <mxPoint x="499" y="333" as="targetPoint" />
          </mxGeometry>
        </mxCell>
        <mxCell id="qeAfjZBKAGT_agbKlzHL-5" style="vsdxID=108;edgeStyle=none;startArrow=none;endArrow=none;startSize=5;endSize=5;strokeColor=#000000;spacingTop=0;spacingBottom=0;spacingLeft=0;spacingRight=0;verticalAlign=middle;html=1;labelBackgroundColor=none;rounded=0;" edge="1" parent="1">
          <mxGeometry relative="1" as="geometry">
            <Array as="points" />
            <mxPoint x="503" y="91" as="sourcePoint" />
            <mxPoint x="510" y="91" as="targetPoint" />
          </mxGeometry>
        </mxCell>
        <mxCell id="qeAfjZBKAGT_agbKlzHL-6" style="vsdxID=43;edgeStyle=none;startArrow=none;endArrow=none;startSize=5;endSize=5;strokeColor=#54426a;spacingTop=0;spacingBottom=0;spacingLeft=0;spacingRight=0;verticalAlign=middle;html=1;labelBackgroundColor=none;rounded=0;" edge="1" parent="1">
          <mxGeometry relative="1" as="geometry">
            <Array as="points" />
            <mxPoint x="491" y="130" as="sourcePoint" />
            <mxPoint x="491" y="283" as="targetPoint" />
          </mxGeometry>
        </mxCell>
        <mxCell id="qeAfjZBKAGT_agbKlzHL-7" style="vsdxID=50;edgeStyle=none;startArrow=none;endArrow=none;startSize=5;endSize=5;strokeColor=#54426a;spacingTop=0;spacingBottom=0;spacingLeft=0;spacingRight=0;verticalAlign=middle;html=1;labelBackgroundColor=none;rounded=0;" edge="1" parent="1">
          <mxGeometry relative="1" as="geometry">
            <Array as="points" />
            <mxPoint x="446" y="135" as="sourcePoint" />
            <mxPoint x="446" y="274" as="targetPoint" />
          </mxGeometry>
        </mxCell>
        <mxCell id="qeAfjZBKAGT_agbKlzHL-8" style="vsdxID=1;edgeStyle=none;startArrow=none;endArrow=none;startSize=5;endSize=5;strokeColor=#54426a;spacingTop=0;spacingBottom=0;spacingLeft=0;spacingRight=0;verticalAlign=middle;html=1;labelBackgroundColor=none;rounded=0;" edge="1" parent="1">
          <mxGeometry relative="1" as="geometry">
            <Array as="points" />
            <mxPoint x="586" y="293" as="sourcePoint" />
            <mxPoint x="586" y="194" as="targetPoint" />
          </mxGeometry>
        </mxCell>
        <mxCell id="qeAfjZBKAGT_agbKlzHL-9" style="vsdxID=118;edgeStyle=none;startArrow=none;endArrow=none;startSize=5;endSize=5;strokeColor=#54426a;spacingTop=0;spacingBottom=0;spacingLeft=0;spacingRight=0;verticalAlign=middle;html=1;labelBackgroundColor=none;rounded=0;" edge="1" parent="1">
          <mxGeometry relative="1" as="geometry">
            <Array as="points" />
            <mxPoint x="663" y="158" as="sourcePoint" />
            <mxPoint x="663" y="302" as="targetPoint" />
          </mxGeometry>
        </mxCell>
        <mxCell id="qeAfjZBKAGT_agbKlzHL-10" style="vsdxID=158;edgeStyle=none;startArrow=none;endArrow=none;startSize=5;endSize=5;strokeColor=#000000;spacingTop=0;spacingBottom=0;spacingLeft=0;spacingRight=0;verticalAlign=middle;html=1;labelBackgroundColor=none;rounded=0;" edge="1" parent="1">
          <mxGeometry relative="1" as="geometry">
            <Array as="points" />
            <mxPoint x="732" y="311" as="sourcePoint" />
            <mxPoint x="732" y="165" as="targetPoint" />
          </mxGeometry>
        </mxCell>
        <mxCell id="qeAfjZBKAGT_agbKlzHL-11" style="vsdxID=49;edgeStyle=none;startArrow=none;endArrow=none;startSize=5;endSize=5;strokeColor=#54426a;spacingTop=0;spacingBottom=0;spacingLeft=0;spacingRight=0;verticalAlign=middle;html=1;labelBackgroundColor=none;rounded=0;" edge="1" parent="1">
          <mxGeometry relative="1" as="geometry">
            <Array as="points" />
            <mxPoint x="362" y="202" as="sourcePoint" />
            <mxPoint x="362" y="264" as="targetPoint" />
          </mxGeometry>
        </mxCell>
        <mxCell id="qeAfjZBKAGT_agbKlzHL-12" style="vsdxID=129;edgeStyle=none;startArrow=none;endArrow=none;startSize=5;endSize=5;strokeColor=#54426a;spacingTop=0;spacingBottom=0;spacingLeft=0;spacingRight=0;verticalAlign=middle;html=1;labelBackgroundColor=#ffffff;rounded=0;" edge="1" parent="1">
          <mxGeometry relative="1" as="geometry">
            <mxPoint as="offset" />
            <Array as="points" />
            <mxPoint x="339" y="264" as="sourcePoint" />
            <mxPoint x="362" y="264" as="targetPoint" />
          </mxGeometry>
        </mxCell>
        <mxCell id="qeAfjZBKAGT_agbKlzHL-13" style="vsdxID=103;edgeStyle=none;startArrow=none;endArrow=none;startSize=5;endSize=5;strokeColor=#54426a;spacingTop=0;spacingBottom=0;spacingLeft=0;spacingRight=0;verticalAlign=middle;html=1;labelBackgroundColor=#ffffff;rounded=0;" edge="1" parent="1">
          <mxGeometry relative="1" as="geometry">
            <mxPoint as="offset" />
            <Array as="points" />
            <mxPoint x="340" y="274" as="sourcePoint" />
            <mxPoint x="446" y="274" as="targetPoint" />
          </mxGeometry>
        </mxCell>
        <mxCell id="qeAfjZBKAGT_agbKlzHL-14" style="vsdxID=102;edgeStyle=none;startArrow=none;endArrow=none;startSize=5;endSize=5;strokeColor=#54426a;spacingTop=0;spacingBottom=0;spacingLeft=0;spacingRight=0;verticalAlign=middle;html=1;labelBackgroundColor=#ffffff;rounded=0;" edge="1" parent="1">
          <mxGeometry relative="1" as="geometry">
            <mxPoint as="offset" />
            <Array as="points" />
            <mxPoint x="340" y="283" as="sourcePoint" />
            <mxPoint x="490" y="283" as="targetPoint" />
          </mxGeometry>
        </mxCell>
        <mxCell id="qeAfjZBKAGT_agbKlzHL-15" style="vsdxID=104;edgeStyle=none;startArrow=none;endArrow=none;startSize=5;endSize=5;strokeColor=#54426a;spacingTop=0;spacingBottom=0;spacingLeft=0;spacingRight=0;verticalAlign=middle;html=1;labelBackgroundColor=#ffffff;rounded=0;" edge="1" parent="1">
          <mxGeometry relative="1" as="geometry">
            <mxPoint as="offset" />
            <Array as="points" />
            <mxPoint x="340" y="293" as="sourcePoint" />
            <mxPoint x="586" y="293" as="targetPoint" />
          </mxGeometry>
        </mxCell>
        <mxCell id="qeAfjZBKAGT_agbKlzHL-16" style="vsdxID=105;edgeStyle=none;startArrow=none;endArrow=none;startSize=5;endSize=5;strokeColor=#54426a;spacingTop=0;spacingBottom=0;spacingLeft=0;spacingRight=0;verticalAlign=middle;html=1;labelBackgroundColor=#ffffff;rounded=0;" edge="1" parent="1">
          <mxGeometry relative="1" as="geometry">
            <mxPoint x="-1" as="offset" />
            <Array as="points" />
            <mxPoint x="340" y="302" as="sourcePoint" />
            <mxPoint x="663" y="302" as="targetPoint" />
          </mxGeometry>
        </mxCell>
        <mxCell id="qeAfjZBKAGT_agbKlzHL-17" style="vsdxID=106;edgeStyle=none;startArrow=none;endArrow=none;startSize=5;endSize=5;strokeColor=#54426a;spacingTop=0;spacingBottom=0;spacingLeft=0;spacingRight=0;verticalAlign=middle;html=1;labelBackgroundColor=#ffffff;rounded=0;" edge="1" parent="1">
          <mxGeometry relative="1" as="geometry">
            <mxPoint as="offset" />
            <Array as="points" />
            <mxPoint x="340" y="311" as="sourcePoint" />
            <mxPoint x="732" y="311" as="targetPoint" />
          </mxGeometry>
        </mxCell>
        <mxCell id="qeAfjZBKAGT_agbKlzHL-18" style="vsdxID=101;edgeStyle=none;startArrow=none;endArrow=none;startSize=5;endSize=5;strokeColor=#54426a;spacingTop=0;spacingBottom=0;spacingLeft=0;spacingRight=0;verticalAlign=middle;html=1;labelBackgroundColor=#ffffff;rounded=0;" edge="1" parent="1">
          <mxGeometry relative="1" as="geometry">
            <mxPoint x="-1" as="offset" />
            <Array as="points" />
            <mxPoint x="340" y="321" as="sourcePoint" />
            <mxPoint x="499" y="321" as="targetPoint" />
          </mxGeometry>
        </mxCell>
        <mxCell id="qeAfjZBKAGT_agbKlzHL-19" style="vsdxID=146;fillColor=#FFFFFF;gradientColor=none;shape=stencil(rY9LDoAgDERP0z3SI6DegwQUogIB/N1eSBd+1u5m2tdmBlAkI4MGzlKOftK7VdkAtsC5dUZHm4sC7ADF4KMeo1+dIh9kJata/FY/HHTH6gVnJ7mGke8Jna37A32BRdxZqMZz981dRtQZuws=);strokeColor=#54426a;flipV=1;points=[];labelBackgroundColor=#ffffff;rounded=0;html=1;whiteSpace=wrap;" vertex="1" parent="1">
          <mxGeometry x="499" y="321" width="1" height="12" as="geometry" />
        </mxCell>
        <mxCell id="qeAfjZBKAGT_agbKlzHL-20" value="" style="line;strokeWidth=2;html=1;" vertex="1" parent="1">
          <mxGeometry x="78" y="60" width="153" height="10" as="geometry" />
        </mxCell>
        <mxCell id="qeAfjZBKAGT_agbKlzHL-21" value="" style="line;strokeWidth=2;direction=south;html=1;" vertex="1" parent="1">
          <mxGeometry x="73" y="64" width="10" height="78" as="geometry" />
        </mxCell>
        <mxCell id="qeAfjZBKAGT_agbKlzHL-22" value="" style="line;strokeWidth=2;direction=south;html=1;" vertex="1" parent="1">
          <mxGeometry x="226" y="64" width="10" height="34" as="geometry" />
        </mxCell>
        <mxCell id="qeAfjZBKAGT_agbKlzHL-23" value="" style="line;strokeWidth=2;html=1;" vertex="1" parent="1">
          <mxGeometry x="213" y="93" width="19" height="10" as="geometry" />
        </mxCell>
        <mxCell id="qeAfjZBKAGT_agbKlzHL-24" value="" style="line;strokeWidth=2;html=1;" vertex="1" parent="1">
          <mxGeometry x="179" y="80.5" width="13" height="10" as="geometry" />
        </mxCell>
        <mxCell id="qeAfjZBKAGT_agbKlzHL-25" value="" style="line;strokeWidth=2;html=1;" vertex="1" parent="1">
          <mxGeometry x="173" y="106" width="19" height="10" as="geometry" />
        </mxCell>
        <mxCell id="qeAfjZBKAGT_agbKlzHL-26" value="" style="line;strokeWidth=2;direction=south;html=1;" vertex="1" parent="1">
          <mxGeometry x="169" y="111" width="10" height="110" as="geometry" />
        </mxCell>
        <mxCell id="qeAfjZBKAGT_agbKlzHL-27" value="" style="line;strokeWidth=2;html=1;" vertex="1" parent="1">
          <mxGeometry x="156" y="145" width="36" height="10" as="geometry" />
        </mxCell>
        <mxCell id="qeAfjZBKAGT_agbKlzHL-28" value="" style="line;strokeWidth=2;html=1;" vertex="1" parent="1">
          <mxGeometry x="104" y="145" width="35" height="10" as="geometry" />
        </mxCell>
        <mxCell id="qeAfjZBKAGT_agbKlzHL-29" value="" style="line;strokeWidth=2;html=1;" vertex="1" parent="1">
          <mxGeometry x="77" y="153" width="15" height="10" as="geometry" />
        </mxCell>
        <mxCell id="qeAfjZBKAGT_agbKlzHL-30" value="" style="line;strokeWidth=2;html=1;" vertex="1" parent="1">
          <mxGeometry x="77" y="138" width="15" height="10" as="geometry" />
        </mxCell>
        <mxCell id="qeAfjZBKAGT_agbKlzHL-31" value="" style="line;strokeWidth=2;html=1;" vertex="1" parent="1">
          <mxGeometry x="173" y="217" width="285" height="10" as="geometry" />
        </mxCell>
        <mxCell id="qeAfjZBKAGT_agbKlzHL-32" value="" style="line;strokeWidth=2;direction=south;html=1;" vertex="1" parent="1">
          <mxGeometry x="73" y="157" width="10" height="85" as="geometry" />
        </mxCell>
        <mxCell id="qeAfjZBKAGT_agbKlzHL-33" value="" style="line;strokeWidth=2;html=1;" vertex="1" parent="1">
          <mxGeometry x="77" y="237" width="429" height="10" as="geometry" />
        </mxCell>
        <mxCell id="qeAfjZBKAGT_agbKlzHL-34" value="" style="line;strokeWidth=2;html=1;" vertex="1" parent="1">
          <mxGeometry x="241" y="145" width="65" height="10" as="geometry" />
        </mxCell>
        <mxCell id="qeAfjZBKAGT_agbKlzHL-35" value="" style="line;strokeWidth=2;direction=south;html=1;" vertex="1" parent="1">
          <mxGeometry x="301" y="68" width="10" height="191" as="geometry" />
        </mxCell>
        <mxCell id="qeAfjZBKAGT_agbKlzHL-36" value="" style="line;strokeWidth=2;html=1;" vertex="1" parent="1">
          <mxGeometry x="306" y="64" width="370" height="10" as="geometry" />
        </mxCell>
        <mxCell id="qeAfjZBKAGT_agbKlzHL-37" value="" style="line;strokeWidth=2;html=1;" vertex="1" parent="1">
          <mxGeometry x="306" y="88" width="23" height="10" as="geometry" />
        </mxCell>
        <mxCell id="qeAfjZBKAGT_agbKlzHL-38" value="" style="line;strokeWidth=2;html=1;" vertex="1" parent="1">
          <mxGeometry x="306" y="148" width="23" height="10" as="geometry" />
        </mxCell>
        <mxCell id="qeAfjZBKAGT_agbKlzHL-39" value="" style="line;strokeWidth=2;html=1;" vertex="1" parent="1">
          <mxGeometry x="306" y="186" width="23" height="10" as="geometry" />
        </mxCell>
        <mxCell id="qeAfjZBKAGT_agbKlzHL-40" value="" style="line;strokeWidth=2;html=1;" vertex="1" parent="1">
          <mxGeometry x="390" y="148" width="173" height="10" as="geometry" />
        </mxCell>
        <mxCell id="qeAfjZBKAGT_agbKlzHL-41" value="" style="line;strokeWidth=2;html=1;" vertex="1" parent="1">
          <mxGeometry x="390" y="186" width="68" height="10" as="geometry" />
        </mxCell>
        <mxCell id="qeAfjZBKAGT_agbKlzHL-42" value="" style="line;strokeWidth=2;html=1;" vertex="1" parent="1">
          <mxGeometry x="388" y="88" width="90" height="10" as="geometry" />
        </mxCell>
        <mxCell id="qeAfjZBKAGT_agbKlzHL-43" value="" style="line;strokeWidth=2;html=1;" vertex="1" parent="1">
          <mxGeometry x="550" y="130" width="13" height="10" as="geometry" />
        </mxCell>
        <mxCell id="qeAfjZBKAGT_agbKlzHL-44" value="" style="line;strokeWidth=2;html=1;" vertex="1" parent="1">
          <mxGeometry x="450" y="118" width="27" height="10" as="geometry" />
        </mxCell>
        <mxCell id="qeAfjZBKAGT_agbKlzHL-45" value="" style="line;strokeWidth=2;html=1;" vertex="1" parent="1">
          <mxGeometry x="431" y="125" width="8" height="10" as="geometry" />
        </mxCell>
        <mxCell id="qeAfjZBKAGT_agbKlzHL-46" value="" style="line;strokeWidth=2;html=1;" vertex="1" parent="1">
          <mxGeometry x="423" y="111" width="17" height="10" as="geometry" />
        </mxCell>
        <mxCell id="qeAfjZBKAGT_agbKlzHL-47" value="" style="line;strokeWidth=2;direction=south;html=1;" vertex="1" parent="1">
          <mxGeometry x="419" y="116" width="10" height="36" as="geometry" />
        </mxCell>
        <mxCell id="qeAfjZBKAGT_agbKlzHL-48" value="" style="line;strokeWidth=2;direction=south;html=1;" vertex="1" parent="1">
          <mxGeometry x="426.5" y="130" width="10" height="61" as="geometry" />
        </mxCell>
        <mxCell id="qeAfjZBKAGT_agbKlzHL-49" value="" style="line;strokeWidth=2;html=1;" vertex="1" parent="1">
          <mxGeometry x="675" y="93" width="29" height="10" as="geometry" />
        </mxCell>
        <mxCell id="qeAfjZBKAGT_agbKlzHL-50" value="" style="line;strokeWidth=2;html=1;" vertex="1" parent="1">
          <mxGeometry x="478" y="200" width="27" height="10" as="geometry" />
        </mxCell>
        <mxCell id="qeAfjZBKAGT_agbKlzHL-51" value="" style="line;strokeWidth=2;direction=south;html=1;" vertex="1" parent="1">
          <mxGeometry x="500" y="204" width="10" height="38" as="geometry" />
        </mxCell>
        <mxCell id="qeAfjZBKAGT_agbKlzHL-52" value="" style="line;strokeWidth=2;direction=south;html=1;" vertex="1" parent="1">
          <mxGeometry x="545" y="107" width="10" height="29" as="geometry" />
        </mxCell>
        <mxCell id="qeAfjZBKAGT_agbKlzHL-53" value="" style="line;strokeWidth=2;direction=south;html=1;" vertex="1" parent="1">
          <mxGeometry x="671" y="68" width="10" height="29" as="geometry" />
        </mxCell>
        <mxCell id="qeAfjZBKAGT_agbKlzHL-54" value="" style="line;strokeWidth=2;direction=south;html=1;" vertex="1" parent="1">
          <mxGeometry x="639" y="107" width="10" height="28" as="geometry" />
        </mxCell>
        <mxCell id="qeAfjZBKAGT_agbKlzHL-55" value="" style="line;strokeWidth=2;html=1;" vertex="1" parent="1">
          <mxGeometry x="502" y="103" width="141.5" height="10" as="geometry" />
        </mxCell>
        <mxCell id="qeAfjZBKAGT_agbKlzHL-56" value="" style="line;strokeWidth=2;html=1;" vertex="1" parent="1">
          <mxGeometry x="607" y="148" width="49" height="10" as="geometry" />
        </mxCell>
        <mxCell id="qeAfjZBKAGT_agbKlzHL-57" value="" style="line;strokeWidth=2;html=1;" vertex="1" parent="1">
          <mxGeometry x="643.5" y="129" width="13" height="10" as="geometry" />
        </mxCell>
        <mxCell id="qeAfjZBKAGT_agbKlzHL-58" value="" style="line;strokeWidth=2;html=1;" vertex="1" parent="1">
          <mxGeometry x="668" y="139" width="36" height="10" as="geometry" />
        </mxCell>
        <mxCell id="qeAfjZBKAGT_agbKlzHL-59" value="&lt;div style=&quot;font-size: 1px&quot;&gt;&lt;p style=&quot;align:left;margin-left:0;margin-right:0;margin-top:0px;margin-bottom:0px;text-indent:0;valign:middle;direction:ltr;&quot;&gt;&lt;font style=&quot;font-size:8.47px;font-family:Segoe UI;color:#000000;direction:ltr;letter-spacing:0px;line-height:120%;opacity:1&quot;&gt;&lt;sub&gt;19~15&lt;br/&gt;&lt;/sub&gt;&lt;/font&gt;&lt;/p&gt;&lt;/div&gt;" style="verticalAlign=middle;align=left;vsdxID=112;fillColor=none;gradientColor=none;strokeColor=none;points=[];labelBackgroundColor=none;rounded=0;html=1;whiteSpace=wrap;" vertex="1" parent="1">
          <mxGeometry x="306" y="80" width="24" height="12" as="geometry" />
        </mxCell>
        <mxCell id="qeAfjZBKAGT_agbKlzHL-60" value="&lt;div style=&quot;font-size: 1px&quot;&gt;&lt;p style=&quot;align:left;margin-left:0;margin-right:0;margin-top:0px;margin-bottom:0px;text-indent:0;valign:middle;direction:ltr;&quot;&gt;&lt;font style=&quot;font-size:8.47px;font-family:Segoe UI;color:#000000;direction:ltr;letter-spacing:0px;line-height:120%;opacity:1&quot;&gt;&lt;sub&gt;24~20&lt;br/&gt;&lt;/sub&gt;&lt;/font&gt;&lt;/p&gt;&lt;/div&gt;" style="verticalAlign=middle;align=left;vsdxID=113;fillColor=none;gradientColor=none;strokeColor=none;points=[];labelBackgroundColor=none;rounded=0;html=1;whiteSpace=wrap;" vertex="1" parent="1">
          <mxGeometry x="306" y="141" width="26" height="10" as="geometry" />
        </mxCell>
        <mxCell id="qeAfjZBKAGT_agbKlzHL-61" style="vsdxID=115;edgeStyle=none;startArrow=none;endArrow=none;startSize=5;endSize=5;strokeColor=#000000;spacingTop=0;spacingBottom=0;spacingLeft=0;spacingRight=0;verticalAlign=middle;html=1;labelBackgroundColor=none;rounded=0;" edge="1" parent="1">
          <mxGeometry relative="1" as="geometry">
            <mxPoint as="offset" />
            <Array as="points" />
            <mxPoint x="433" y="127" as="sourcePoint" />
            <mxPoint x="433" y="127" as="targetPoint" />
          </mxGeometry>
        </mxCell>
        <mxCell id="qeAfjZBKAGT_agbKlzHL-62" value="&lt;div style=&quot;font-size: 1px&quot;&gt;&lt;p style=&quot;align:left;margin-left:0;margin-right:0;margin-top:0px;margin-bottom:0px;text-indent:0;valign:middle;direction:ltr;&quot;&gt;&lt;font style=&quot;font-size:8.47px;font-family:Segoe UI;color:#000000;direction:ltr;letter-spacing:0px;line-height:120%;opacity:1&quot;&gt;&lt;sub&gt;11~7&lt;br/&gt;&lt;/sub&gt;&lt;/font&gt;&lt;/p&gt;&lt;/div&gt;" style="verticalAlign=middle;align=left;vsdxID=116;fillColor=none;gradientColor=none;strokeColor=none;points=[];labelBackgroundColor=none;rounded=0;html=1;whiteSpace=wrap;" vertex="1" parent="1">
          <mxGeometry x="307" y="55" width="26" height="13" as="geometry" />
        </mxCell>
        <mxCell id="qeAfjZBKAGT_agbKlzHL-63" style="vsdxID=133;fillColor=#FFFFFF;gradientColor=none;shape=stencil(nZBLDoAgDERP0z3SIyjew0SURgSD+Lu9kMZoXLhwN9O+tukAlrNpJg1SzDH4QW/URgNYgZTkjA4UkwJUgGXng+6DX1zLfmoymdXo17xh5zmRJ6Q42BWCfc2oJfdAr+Yv+AP9Cb7OJ3H/2JG1HNGz/84klThPVCc=);strokeColor=#000000;points=[];labelBackgroundColor=none;rounded=0;html=1;whiteSpace=wrap;" vertex="1" parent="1">
          <mxGeometry x="563" y="118" width="44" height="76" as="geometry" />
        </mxCell>
        <mxCell id="qeAfjZBKAGT_agbKlzHL-64" value="&lt;div style=&quot;font-size: 1px&quot;&gt;&lt;font style=&quot;font-size:8.47px;font-family:Segoe UI;color:#000000;direction:ltr;letter-spacing:0px;line-height:120%;opacity:1&quot;&gt;WE&lt;br/&gt;&lt;/font&gt;&lt;/div&gt;" style="verticalAlign=middle;align=center;vsdxID=134;fillColor=none;gradientColor=none;strokeColor=none;points=[];labelBackgroundColor=none;rounded=0;html=1;whiteSpace=wrap;" vertex="1" parent="1">
          <mxGeometry x="573" y="182" width="25" height="11" as="geometry" />
        </mxCell>
        <mxCell id="qeAfjZBKAGT_agbKlzHL-65" value="&lt;div style=&quot;font-size: 1px&quot;&gt;&lt;p style=&quot;align:left;margin-left:0;margin-right:0;margin-top:0px;margin-bottom:0px;text-indent:0;valign:middle;direction:ltr;&quot;&gt;&lt;font style=&quot;font-size:8.47px;font-family:Segoe UI;color:#000000;direction:ltr;letter-spacing:0px;line-height:120%;opacity:1&quot;&gt;A&lt;br/&gt;&lt;/font&gt;&lt;/p&gt;&lt;/div&gt;" style="verticalAlign=middle;align=left;vsdxID=135;fillColor=none;gradientColor=none;strokeColor=none;points=[];labelBackgroundColor=none;rounded=0;html=1;whiteSpace=wrap;" vertex="1" parent="1">
          <mxGeometry x="562" y="121" width="31" height="25" as="geometry" />
        </mxCell>
        <mxCell id="qeAfjZBKAGT_agbKlzHL-66" value="&lt;div style=&quot;font-size: 1px&quot;&gt;&lt;p style=&quot;align:right;margin-left:0;margin-right:0;margin-top:0px;margin-bottom:0px;text-indent:0;valign:middle;direction:ltr;&quot;&gt;&lt;font style=&quot;font-size:8.47px;font-family:Segoe UI;color:#000000;direction:ltr;letter-spacing:0px;line-height:120%;opacity:1&quot;&gt;DO&lt;br/&gt;&lt;/font&gt;&lt;/p&gt;&lt;/div&gt;" style="verticalAlign=middle;align=right;vsdxID=136;fillColor=none;gradientColor=none;strokeColor=none;points=[];labelBackgroundColor=none;rounded=0;html=1;whiteSpace=wrap;" vertex="1" parent="1">
          <mxGeometry x="582" y="140" width="26" height="25" as="geometry" />
        </mxCell>
        <mxCell id="qeAfjZBKAGT_agbKlzHL-67" value="&lt;div style=&quot;font-size: 1px&quot;&gt;&lt;font style=&quot;font-size:11.29px;font-family:Segoe UI;color:#3f3f3f;direction:ltr;letter-spacing:0px;line-height:120%;opacity:1&quot;&gt;数据&lt;br/&gt;存储器&lt;br/&gt;&lt;/font&gt;&lt;/div&gt;" style="verticalAlign=middle;align=center;vsdxID=137;fillColor=none;gradientColor=none;strokeColor=none;points=[];labelBackgroundColor=none;rounded=0;html=1;whiteSpace=wrap;" vertex="1" parent="1">
          <mxGeometry x="560" y="158" width="54" height="25" as="geometry" />
        </mxCell>
        <mxCell id="qeAfjZBKAGT_agbKlzHL-68" value="&lt;div style=&quot;font-size: 1px&quot;&gt;&lt;p style=&quot;align:left;margin-left:0;margin-right:0;margin-top:0px;margin-bottom:0px;text-indent:0;valign:middle;direction:ltr;&quot;&gt;&lt;font style=&quot;font-size:8.47px;font-family:Segoe UI;color:#000000;direction:ltr;letter-spacing:0px;line-height:120%;opacity:1&quot;&gt;DI&lt;br/&gt;&lt;/font&gt;&lt;/p&gt;&lt;/div&gt;" style="verticalAlign=middle;align=left;vsdxID=138;fillColor=none;gradientColor=none;strokeColor=none;points=[];labelBackgroundColor=none;rounded=0;html=1;whiteSpace=wrap;" vertex="1" parent="1">
          <mxGeometry x="562" y="140" width="31" height="25" as="geometry" />
        </mxCell>
        <mxCell id="qeAfjZBKAGT_agbKlzHL-69" style="vsdxID=147;edgeStyle=none;dashed=1;startArrow=none;endArrow=none;startSize=5;endSize=5;strokeColor=#000000;spacingTop=0;spacingBottom=0;spacingLeft=0;spacingRight=0;verticalAlign=middle;html=1;labelBackgroundColor=#ffffff;rounded=0;" edge="1" parent="1">
          <mxGeometry relative="1" as="geometry">
            <Array as="points" />
            <mxPoint x="260" y="34" as="sourcePoint" />
            <mxPoint x="260" y="50" as="targetPoint" />
          </mxGeometry>
        </mxCell>
        <mxCell id="qeAfjZBKAGT_agbKlzHL-70" style="vsdxID=148;edgeStyle=none;dashed=1;startArrow=none;endArrow=none;startSize=5;endSize=5;strokeColor=#000000;spacingTop=0;spacingBottom=0;spacingLeft=0;spacingRight=0;verticalAlign=middle;html=1;labelBackgroundColor=#ffffff;rounded=0;" edge="1" parent="1">
          <mxGeometry relative="1" as="geometry">
            <Array as="points" />
            <mxPoint x="406" y="34" as="sourcePoint" />
            <mxPoint x="406" y="50" as="targetPoint" />
          </mxGeometry>
        </mxCell>
        <mxCell id="qeAfjZBKAGT_agbKlzHL-71" style="vsdxID=149;edgeStyle=none;dashed=1;startArrow=none;endArrow=none;startSize=5;endSize=5;strokeColor=#000000;spacingTop=0;spacingBottom=0;spacingLeft=0;spacingRight=0;verticalAlign=middle;html=1;labelBackgroundColor=#ffffff;rounded=0;" edge="1" parent="1">
          <mxGeometry relative="1" as="geometry">
            <Array as="points" />
            <mxPoint x="60" y="34" as="sourcePoint" />
            <mxPoint x="60" y="51" as="targetPoint" />
          </mxGeometry>
        </mxCell>
        <mxCell id="qeAfjZBKAGT_agbKlzHL-72" style="vsdxID=150;edgeStyle=none;dashed=1;startArrow=none;endArrow=none;startSize=5;endSize=5;strokeColor=#000000;spacingTop=0;spacingBottom=0;spacingLeft=0;spacingRight=0;verticalAlign=middle;html=1;labelBackgroundColor=#ffffff;rounded=0;" edge="1" parent="1">
          <mxGeometry relative="1" as="geometry">
            <Array as="points" />
            <mxPoint x="522" y="34" as="sourcePoint" />
            <mxPoint x="522" y="50" as="targetPoint" />
          </mxGeometry>
        </mxCell>
        <mxCell id="qeAfjZBKAGT_agbKlzHL-73" style="vsdxID=151;edgeStyle=none;dashed=1;startArrow=none;endArrow=none;startSize=5;endSize=5;strokeColor=#000000;spacingTop=0;spacingBottom=0;spacingLeft=0;spacingRight=0;verticalAlign=middle;html=1;labelBackgroundColor=#ffffff;rounded=0;" edge="1" parent="1">
          <mxGeometry relative="1" as="geometry">
            <Array as="points" />
            <mxPoint x="626" y="34" as="sourcePoint" />
            <mxPoint x="626" y="50" as="targetPoint" />
          </mxGeometry>
        </mxCell>
        <mxCell id="qeAfjZBKAGT_agbKlzHL-74" style="vsdxID=152;edgeStyle=none;dashed=1;startArrow=none;endArrow=none;startSize=5;endSize=5;strokeColor=#000000;spacingTop=0;spacingBottom=0;spacingLeft=0;spacingRight=0;verticalAlign=middle;html=1;labelBackgroundColor=#ffffff;rounded=0;" edge="1" parent="1">
          <mxGeometry relative="1" as="geometry">
            <Array as="points" />
            <mxPoint x="762" y="34" as="sourcePoint" />
            <mxPoint x="762" y="49" as="targetPoint" />
          </mxGeometry>
        </mxCell>
        <mxCell id="qeAfjZBKAGT_agbKlzHL-75" value="&lt;div style=&quot;font-size: 1px&quot;&gt;&lt;font style=&quot;font-size:11.29px;font-family:Segoe UI;color:#3f3f3f;direction:ltr;letter-spacing:0px;line-height:120%;opacity:1&quot;&gt;取指令（IF）&lt;br/&gt;&lt;/font&gt;&lt;/div&gt;" style="verticalAlign=middle;align=center;vsdxID=153;fillColor=none;gradientColor=none;shape=stencil(nZBLDoAgDERP0z3SIyjew0SURgSD+Lu9kMZoXLhwN9O+tukAlrNpJg1SzDH4QW/URgNYgZTkjA4UkwJUgGXng+6DX1zLfmoymdXo17xh5zmRJ6Q42BWCfc2oJfdAr+Yv+AP9Cb7OJ3H/2JG1HNGz/84klThPVCc=);strokeColor=none;points=[];labelBackgroundColor=none;rounded=0;html=1;whiteSpace=wrap;" vertex="1" parent="1">
          <mxGeometry x="76" y="34" width="181" height="16" as="geometry" />
        </mxCell>
        <mxCell id="qeAfjZBKAGT_agbKlzHL-76" value="&lt;div style=&quot;font-size: 1px&quot;&gt;&lt;font style=&quot;font-size:11.29px;font-family:Segoe UI;color:#3f3f3f;direction:ltr;letter-spacing:0px;line-height:120%;opacity:1&quot;&gt;译码/读数据（ID）&lt;br/&gt;&lt;/font&gt;&lt;/div&gt;" style="verticalAlign=middle;align=center;vsdxID=154;fillColor=none;gradientColor=none;shape=stencil(nZBLDoAgDERP0z3SIyjew0SURgSD+Lu9kMZoXLhwN9O+tukAlrNpJg1SzDH4QW/URgNYgZTkjA4UkwJUgGXng+6DX1zLfmoymdXo17xh5zmRJ6Q42BWCfc2oJfdAr+Yv+AP9Cb7OJ3H/2JG1HNGz/84klThPVCc=);strokeColor=none;points=[];labelBackgroundColor=none;rounded=0;html=1;whiteSpace=wrap;" vertex="1" parent="1">
          <mxGeometry x="268" y="34" width="132" height="16" as="geometry" />
        </mxCell>
        <mxCell id="qeAfjZBKAGT_agbKlzHL-77" value="&lt;div style=&quot;font-size: 1px&quot;&gt;&lt;font style=&quot;font-size:11.29px;font-family:Segoe UI;color:#3f3f3f;direction:ltr;letter-spacing:0px;line-height:120%;opacity:1&quot;&gt;ALU运算（EX）&lt;br/&gt;&lt;/font&gt;&lt;/div&gt;" style="verticalAlign=middle;align=center;vsdxID=155;fillColor=none;gradientColor=none;shape=stencil(nZBLDoAgDERP0z3SIyjew0SURgSD+Lu9kMZoXLhwN9O+tukAlrNpJg1SzDH4QW/URgNYgZTkjA4UkwJUgGXng+6DX1zLfmoymdXo17xh5zmRJ6Q42BWCfc2oJfdAr+Yv+AP9Cb7OJ3H/2JG1HNGz/84klThPVCc=);strokeColor=none;points=[];labelBackgroundColor=none;rounded=0;html=1;whiteSpace=wrap;" vertex="1" parent="1">
          <mxGeometry x="410" y="34" width="110" height="16" as="geometry" />
        </mxCell>
        <mxCell id="qeAfjZBKAGT_agbKlzHL-78" value="&lt;div style=&quot;font-size: 1px&quot;&gt;&lt;font style=&quot;font-size:11.29px;font-family:Segoe UI;color:#3f3f3f;direction:ltr;letter-spacing:0px;line-height:120%;opacity:1&quot;&gt;存储器（MEM）&lt;br/&gt;&lt;/font&gt;&lt;/div&gt;" style="verticalAlign=middle;align=center;vsdxID=156;fillColor=none;gradientColor=none;shape=stencil(nZBLDoAgDERP0z3SIyjew0SURgSD+Lu9kMZoXLhwN9O+tukAlrNpJg1SzDH4QW/URgNYgZTkjA4UkwJUgGXng+6DX1zLfmoymdXo17xh5zmRJ6Q42BWCfc2oJfdAr+Yv+AP9Cb7OJ3H/2JG1HNGz/84klThPVCc=);strokeColor=none;points=[];labelBackgroundColor=none;rounded=0;html=1;whiteSpace=wrap;" vertex="1" parent="1">
          <mxGeometry x="524" y="34" width="102" height="16" as="geometry" />
        </mxCell>
        <mxCell id="qeAfjZBKAGT_agbKlzHL-79" value="&lt;div style=&quot;font-size: 1px&quot;&gt;&lt;font style=&quot;font-size:11.29px;font-family:Segoe UI;color:#3f3f3f;direction:ltr;letter-spacing:0px;line-height:120%;opacity:1&quot;&gt;写寄存器（WB）&lt;br/&gt;&lt;/font&gt;&lt;/div&gt;" style="verticalAlign=middle;align=center;vsdxID=157;fillColor=none;gradientColor=none;shape=stencil(nZBLDoAgDERP0z3SIyjew0SURgSD+Lu9kMZoXLhwN9O+tukAlrNpJg1SzDH4QW/URgNYgZTkjA4UkwJUgGXng+6DX1zLfmoymdXo17xh5zmRJ6Q42BWCfc2oJfdAr+Yv+AP9Cb7OJ3H/2JG1HNGz/84klThPVCc=);strokeColor=none;points=[];labelBackgroundColor=none;rounded=0;html=1;whiteSpace=wrap;" vertex="1" parent="1">
          <mxGeometry x="630" y="34" width="130" height="16" as="geometry" />
        </mxCell>
        <mxCell id="qeAfjZBKAGT_agbKlzHL-80" value="&lt;div style=&quot;font-size: 1px&quot;&gt;&lt;font style=&quot;font-size:11.29px;font-family:Segoe UI;color:#3f3f3f;direction:ltr;letter-spacing:0px;line-height:120%;opacity:1&quot;&gt;分支&lt;br/&gt;控制&lt;br/&gt;&lt;/font&gt;&lt;/div&gt;" style="verticalAlign=middle;align=center;vsdxID=164;fillColor=#FFFFFF;gradientColor=none;shape=stencil(vVPLdoMgEP0als7hoQXXafIfnAaVUyoeJIn9+2IhTdDYrprdPC4z3Jm5iO3GTg4KUTx6Z9/VRR99h9grolT3nXLaBwuxPWK7xjrVOnvqj9Ef5IycrQ97nitM8Z0ogbL5FcWfMUIw/vYPES7dW8i5BCclCBHhLuEpBp4qTHmFa0UuAF8RhZz0WDjrpde2j/mENtK1qgj9isbINkuNF6WGVTj90OhebTenBGr+CyEGLyQnRATUVUZoPST8NDoVcP6g9dZ2MF2QqaHKt7M1nieQ2TqLx2Q4sGpxaiUQnpFZj+dn//9P50/tBOOmu0YbE2V7n1/qNISixtn+Cw==);strokeColor=#000000;flipV=1;points=[[0.5,0,0],[0.5,0,0],[0.5,0.5,0],[1,0.5,0],[0.5,0.5,0]];labelBackgroundColor=none;rounded=0;html=1;whiteSpace=wrap;" vertex="1" parent="1">
          <mxGeometry x="77" y="277" width="44" height="31" as="geometry" />
        </mxCell>
        <mxCell id="qeAfjZBKAGT_agbKlzHL-81" style="vsdxID=202;fillColor=none;gradientColor=none;strokeColor=none;points=[];labelBackgroundColor=none;rounded=0;html=1;whiteSpace=wrap;" vertex="1" parent="1">
          <mxGeometry x="86" y="125" width="28" height="50" as="geometry" />
        </mxCell>
        <mxCell id="qeAfjZBKAGT_agbKlzHL-82" style="vsdxID=203;fillColor=#FFFFFF;gradientColor=none;shape=stencil(UzV2Ls5ILEhVNTIoLinKz04tz0wpyVA1dlE1MsrMy0gtyiwBslSNXVWNndPyi1LTi/JL81Ig/IJEkEoQKze/DGRCBUSfAUiHkUElMs8NojAnMw+nQkMDPEphkjDFFuZ6psSrNjTCpxqPe4EMhC/TMnNyIIGELI8eKkAhSIgauwIA);strokeColor=#000000;points=[];labelBackgroundColor=none;rounded=0;html=1;whiteSpace=wrap;" vertex="1" parent="qeAfjZBKAGT_agbKlzHL-81">
          <mxGeometry x="6" y="8" width="12" height="33" as="geometry" />
        </mxCell>
        <mxCell id="qeAfjZBKAGT_agbKlzHL-83" value="&lt;div style=&quot;font-size: 1px&quot;&gt;&lt;p style=&quot;align:left;margin-left:0;margin-right:0;margin-top:0px;margin-bottom:0px;text-indent:0;valign:middle;direction:ltr;&quot;&gt;&lt;font style=&quot;font-size:8.47px;font-family:Segoe UI;color:#000000;direction:ltr;letter-spacing:0px;line-height:120%;opacity:1&quot;&gt;0&lt;br/&gt;&lt;/font&gt;&lt;/p&gt;&lt;/div&gt;" style="verticalAlign=middle;align=left;vsdxID=204;fillColor=none;gradientColor=none;strokeColor=none;points=[];labelBackgroundColor=none;rounded=0;html=1;whiteSpace=wrap;" vertex="1" parent="qeAfjZBKAGT_agbKlzHL-81">
          <mxGeometry x="6" y="10" width="9" height="12" as="geometry" />
        </mxCell>
        <mxCell id="qeAfjZBKAGT_agbKlzHL-84" value="&lt;div style=&quot;font-size: 1px&quot;&gt;&lt;p style=&quot;align:left;margin-left:0;margin-right:0;margin-top:0px;margin-bottom:0px;text-indent:0;valign:middle;direction:ltr;&quot;&gt;&lt;font style=&quot;font-size:8.47px;font-family:Segoe UI;color:#000000;direction:ltr;letter-spacing:0px;line-height:120%;opacity:1&quot;&gt;1&lt;br/&gt;&lt;/font&gt;&lt;/p&gt;&lt;/div&gt;" style="verticalAlign=middle;align=left;vsdxID=205;fillColor=none;gradientColor=none;strokeColor=none;points=[];labelBackgroundColor=none;rounded=0;html=1;whiteSpace=wrap;" vertex="1" parent="qeAfjZBKAGT_agbKlzHL-81">
          <mxGeometry x="5" y="28" width="14" height="10" as="geometry" />
        </mxCell>
        <mxCell id="qeAfjZBKAGT_agbKlzHL-85" style="vsdxID=222;fillColor=#FFFFFF;gradientColor=none;shape=stencil(nZBLDoAgDERP0z3SIyjew0SURgSD+Lu9kMZoXLhwN9O+tukAlrNpJg1SzDH4QW/URgNYgZTkjA4UkwJUgGXng+6DX1zLfmoymdXo17xh5zmRJ6Q42BWCfc2oJfdAr+Yv+AP9Cb7OJ3H/2JG1HNGz/84klThPVCc=);strokeColor=#000000;points=[];labelBackgroundColor=none;rounded=0;html=1;whiteSpace=wrap;" vertex="1" parent="1">
          <mxGeometry x="192" y="126" width="50" height="76" as="geometry" />
        </mxCell>
        <mxCell id="qeAfjZBKAGT_agbKlzHL-86" value="&lt;div style=&quot;font-size: 1px&quot;&gt;&lt;p style=&quot;align:left;margin-left:0;margin-right:0;margin-top:0px;margin-bottom:0px;text-indent:0;valign:middle;direction:ltr;&quot;&gt;&lt;font style=&quot;font-size:8.47px;font-family:Segoe UI;color:#000000;direction:ltr;letter-spacing:0px;line-height:120%;opacity:1&quot;&gt;A&lt;br/&gt;&lt;/font&gt;&lt;/p&gt;&lt;/div&gt;" style="verticalAlign=middle;align=left;vsdxID=223;fillColor=none;gradientColor=none;strokeColor=none;points=[];labelBackgroundColor=none;rounded=0;html=1;whiteSpace=wrap;" vertex="1" parent="1">
          <mxGeometry x="192" y="136" width="31" height="25" as="geometry" />
        </mxCell>
        <mxCell id="qeAfjZBKAGT_agbKlzHL-87" value="&lt;div style=&quot;font-size: 1px&quot;&gt;&lt;p style=&quot;align:right;margin-left:0;margin-right:0;margin-top:0px;margin-bottom:0px;text-indent:0;valign:middle;direction:ltr;&quot;&gt;&lt;font style=&quot;font-size:8.47px;font-family:Segoe UI;color:#000000;direction:ltr;letter-spacing:0px;line-height:120%;opacity:1&quot;&gt;DO&lt;br/&gt;&lt;/font&gt;&lt;/p&gt;&lt;/div&gt;" style="verticalAlign=middle;align=right;vsdxID=224;fillColor=none;gradientColor=none;strokeColor=none;points=[];labelBackgroundColor=none;rounded=0;html=1;whiteSpace=wrap;" vertex="1" parent="1">
          <mxGeometry x="207" y="136" width="35" height="25" as="geometry" />
        </mxCell>
        <mxCell id="qeAfjZBKAGT_agbKlzHL-88" value="&lt;div style=&quot;font-size: 1px&quot;&gt;&lt;font style=&quot;font-size:11.29px;font-family:Segoe UI;color:#3f3f3f;direction:ltr;letter-spacing:0px;line-height:120%;opacity:1&quot;&gt;指令&lt;br/&gt;存储器&lt;br/&gt;&lt;/font&gt;&lt;/div&gt;" style="verticalAlign=middle;align=center;vsdxID=225;fillColor=none;gradientColor=none;strokeColor=none;points=[];labelBackgroundColor=none;rounded=0;html=1;whiteSpace=wrap;" vertex="1" parent="1">
          <mxGeometry x="186" y="158" width="63" height="25" as="geometry" />
        </mxCell>
        <mxCell id="qeAfjZBKAGT_agbKlzHL-89" style="vsdxID=227;fillColor=#d8d8d8;gradientColor=none;shape=stencil(nZBLDoAgDERP0z3SIyjew0SURgSD+Lu9kMZoXLhwN9O+tukAlrNpJg1SzDH4QW/URgNYgZTkjA4UkwJUgGXng+6DX1zLfmoymdXo17xh5zmRJ6Q42BWCfc2oJfdAr+Yv+AP9Cb7OJ3H/2JG1HNGz/84klThPVCc=);strokeColor=#000000;points=[];labelBackgroundColor=none;rounded=0;html=1;whiteSpace=wrap;fillStyle=auto;" vertex="1" parent="1">
          <mxGeometry x="329" y="80" width="61" height="85" as="geometry" />
        </mxCell>
        <mxCell id="qeAfjZBKAGT_agbKlzHL-90" value="&lt;div style=&quot;font-size: 1px&quot;&gt;&lt;p style=&quot;align:left;margin-left:0;margin-right:0;margin-top:0px;margin-bottom:0px;text-indent:0;valign:middle;direction:ltr;&quot;&gt;&lt;font style=&quot;font-size:8.47px;font-family:Segoe UI;color:#000000;direction:ltr;letter-spacing:0px;line-height:120%;opacity:1&quot;&gt;RA1&lt;br/&gt;&lt;/font&gt;&lt;/p&gt;&lt;/div&gt;" style="verticalAlign=middle;align=left;vsdxID=228;fillColor=none;gradientColor=none;strokeColor=none;strokeWidth=2;points=[];labelBackgroundColor=none;rounded=0;html=1;whiteSpace=wrap;" vertex="1" parent="1">
          <mxGeometry x="329" y="79" width="30" height="25" as="geometry" />
        </mxCell>
        <mxCell id="qeAfjZBKAGT_agbKlzHL-91" value="&lt;div style=&quot;font-size: 1px&quot;&gt;&lt;p style=&quot;align:right;margin-left:0;margin-right:0;margin-top:0px;margin-bottom:0px;text-indent:0;valign:middle;direction:ltr;&quot;&gt;&lt;font style=&quot;font-size:8.47px;font-family:Segoe UI;color:#000000;direction:ltr;letter-spacing:0px;line-height:120%;opacity:1&quot;&gt;RD2&lt;br/&gt;&lt;/font&gt;&lt;/p&gt;&lt;/div&gt;" style="verticalAlign=middle;align=right;vsdxID=229;fillColor=none;gradientColor=none;strokeColor=none;strokeWidth=2;points=[];labelBackgroundColor=none;rounded=0;html=1;whiteSpace=wrap;" vertex="1" parent="1">
          <mxGeometry x="360" y="139" width="30" height="25" as="geometry" />
        </mxCell>
        <mxCell id="qeAfjZBKAGT_agbKlzHL-92" value="&lt;div style=&quot;font-size: 1px&quot;&gt;&lt;p style=&quot;align:right;margin-left:0;margin-right:0;margin-top:0px;margin-bottom:0px;text-indent:0;valign:middle;direction:ltr;&quot;&gt;&lt;font style=&quot;font-size:8.47px;font-family:Segoe UI;color:#000000;direction:ltr;letter-spacing:0px;line-height:120%;opacity:1&quot;&gt;RD1&lt;br/&gt;&lt;/font&gt;&lt;/p&gt;&lt;/div&gt;" style="verticalAlign=middle;align=right;vsdxID=230;fillColor=none;gradientColor=none;strokeColor=none;strokeWidth=2;points=[];labelBackgroundColor=none;rounded=0;html=1;whiteSpace=wrap;" vertex="1" parent="1">
          <mxGeometry x="360" y="79" width="30" height="25" as="geometry" />
        </mxCell>
        <mxCell id="qeAfjZBKAGT_agbKlzHL-93" value="&lt;div style=&quot;font-size: 1px&quot;&gt;&lt;p style=&quot;align:left;margin-left:0;margin-right:0;margin-top:0px;margin-bottom:0px;text-indent:0;valign:middle;direction:ltr;&quot;&gt;&lt;font style=&quot;font-size:8.47px;font-family:Segoe UI;color:#000000;direction:ltr;letter-spacing:0px;line-height:120%;opacity:1&quot;&gt;RA2&lt;br/&gt;&lt;/font&gt;&lt;/p&gt;&lt;/div&gt;" style="verticalAlign=middle;align=left;vsdxID=232;fillColor=none;gradientColor=none;strokeColor=none;strokeWidth=2;points=[];labelBackgroundColor=none;rounded=0;html=1;whiteSpace=wrap;" vertex="1" parent="1">
          <mxGeometry x="329" y="139" width="36" height="25" as="geometry" />
        </mxCell>
        <mxCell id="qeAfjZBKAGT_agbKlzHL-94" value="&lt;div style=&quot;font-size: 1px&quot;&gt;&lt;font style=&quot;font-size:11.29px;font-family:Segoe UI;color:#3f3f3f;direction:ltr;letter-spacing:0px;line-height:120%;opacity:1&quot;&gt;寄存器堆&lt;br/&gt;（读端口）&lt;br/&gt;&lt;/font&gt;&lt;/div&gt;" style="verticalAlign=middle;align=center;vsdxID=233;fillColor=none;gradientColor=none;strokeColor=none;points=[];labelBackgroundColor=none;rounded=0;html=1;whiteSpace=wrap;" vertex="1" parent="1">
          <mxGeometry x="326" y="107" width="70" height="25" as="geometry" />
        </mxCell>
        <mxCell id="qeAfjZBKAGT_agbKlzHL-95" value="&lt;div style=&quot;font-size: 1px&quot;&gt;&lt;/div&gt;" style="verticalAlign=middle;align=center;vsdxID=250;fillColor=#FFFFFF;gradientColor=none;shape=stencil(nZBLDoAgDERP0z3SIyjew0SURgSD+Lu9kMZoXLhwN9O+tukAlrNpJg1SzDH4QW/URgNYgZTkjA4UkwJUgGXng+6DX1zLfmoymdXo17xh5zmRJ6Q42BWCfc2oJfdAr+Yv+AP9Cb7OJ3H/2JG1HNGz/84klThPVCc=);strokeColor=#000000;flipH=1;points=[];labelBackgroundColor=none;rounded=0;html=1;whiteSpace=wrap;" vertex="1" parent="1">
          <mxGeometry x="329" y="179" width="61" height="23" as="geometry" />
        </mxCell>
        <mxCell id="qeAfjZBKAGT_agbKlzHL-96" value="&lt;div style=&quot;font-size: 1px&quot;&gt;&lt;font style=&quot;font-size:11.29px;font-family:Segoe UI;color:#3f3f3f;direction:ltr;letter-spacing:0px;line-height:120%;opacity:1&quot;&gt;立即数生成&lt;br/&gt;&lt;/font&gt;&lt;/div&gt;" style="verticalAlign=middle;align=center;vsdxID=251;fillColor=none;gradientColor=none;strokeColor=none;flipH=1;points=[];labelBackgroundColor=none;rounded=0;html=1;whiteSpace=wrap;" vertex="1" parent="1">
          <mxGeometry x="326" y="182" width="67" height="17" as="geometry" />
        </mxCell>
        <mxCell id="qeAfjZBKAGT_agbKlzHL-97" style="vsdxID=282;fillColor=none;gradientColor=none;strokeColor=none;points=[];labelBackgroundColor=none;rounded=0;html=1;whiteSpace=wrap;" vertex="1" parent="1">
          <mxGeometry x="650" y="116" width="28" height="54" as="geometry" />
        </mxCell>
        <mxCell id="qeAfjZBKAGT_agbKlzHL-98" style="vsdxID=283;fillColor=#FFFFFF;gradientColor=none;shape=stencil(UzV2Ls5ILEhVNTIoLinKz04tz0wpyVA1dlE1MsrMy0gtyiwBslSNXVWNndPyi1LTi/JL81Ig/IJEkEoQKze/DGRCBUSfAUiHkUElMs8NojAnMw+nQkMDPEphkjDFFuZ6psSrNjTCpxqPe4EMhC/TMnNyIIGELI8eKkAhSIgauwIA);strokeColor=#000000;points=[];labelBackgroundColor=none;rounded=0;html=1;whiteSpace=wrap;" vertex="1" parent="qeAfjZBKAGT_agbKlzHL-97">
          <mxGeometry x="6" y="9" width="12" height="36" as="geometry" />
        </mxCell>
        <mxCell id="qeAfjZBKAGT_agbKlzHL-99" value="&lt;div style=&quot;font-size: 1px&quot;&gt;&lt;p style=&quot;align:left;margin-left:0;margin-right:0;margin-top:0px;margin-bottom:0px;text-indent:0;valign:middle;direction:ltr;&quot;&gt;&lt;font style=&quot;font-size:8.47px;font-family:Segoe UI;color:#000000;direction:ltr;letter-spacing:0px;line-height:120%;opacity:1&quot;&gt;0&lt;br/&gt;&lt;/font&gt;&lt;/p&gt;&lt;/div&gt;" style="verticalAlign=middle;align=left;vsdxID=284;fillColor=none;gradientColor=none;strokeColor=none;points=[];labelBackgroundColor=none;rounded=0;html=1;whiteSpace=wrap;" vertex="1" parent="qeAfjZBKAGT_agbKlzHL-97">
          <mxGeometry x="6" y="12" width="8" height="10" as="geometry" />
        </mxCell>
        <mxCell id="qeAfjZBKAGT_agbKlzHL-100" value="&lt;div style=&quot;font-size: 1px&quot;&gt;&lt;p style=&quot;align:left;margin-left:0;margin-right:0;margin-top:0px;margin-bottom:0px;text-indent:0;valign:middle;direction:ltr;&quot;&gt;&lt;font style=&quot;font-size:8.47px;font-family:Segoe UI;color:#000000;direction:ltr;letter-spacing:0px;line-height:120%;opacity:1&quot;&gt;1&lt;br/&gt;&lt;/font&gt;&lt;/p&gt;&lt;/div&gt;" style="verticalAlign=middle;align=left;vsdxID=285;fillColor=none;gradientColor=none;strokeColor=none;points=[];labelBackgroundColor=none;rounded=0;html=1;whiteSpace=wrap;" vertex="1" parent="qeAfjZBKAGT_agbKlzHL-97">
          <mxGeometry x="5" y="30" width="10" height="10" as="geometry" />
        </mxCell>
        <mxCell id="qeAfjZBKAGT_agbKlzHL-101" style="vsdxID=286;fillColor=none;gradientColor=none;strokeColor=none;points=[];labelBackgroundColor=none;rounded=0;html=1;whiteSpace=wrap;" vertex="1" parent="1">
          <mxGeometry x="433" y="104" width="28" height="38" as="geometry" />
        </mxCell>
        <mxCell id="qeAfjZBKAGT_agbKlzHL-102" style="vsdxID=287;fillColor=#FFFFFF;gradientColor=none;shape=stencil(UzV2Ls5ILEhVNTIoLinKz04tz0wpyVA1dlE1MsrMy0gtyiwBslSNXVWNndPyi1LTi/JL81Ig/IJEkEoQKze/DGRCBUSfAUiHkUElMs8NojAnMw+nQkMDPEphkjDFFuZ6psSrNjTCpxqPe4EMhC/TMnNyIIGELI8eKkAhSIgauwIA);strokeColor=#000000;points=[];labelBackgroundColor=none;rounded=0;html=1;whiteSpace=wrap;" vertex="1" parent="qeAfjZBKAGT_agbKlzHL-101">
          <mxGeometry x="6" y="2" width="12" height="34" as="geometry" />
        </mxCell>
        <mxCell id="qeAfjZBKAGT_agbKlzHL-103" value="&lt;div style=&quot;font-size: 1px&quot;&gt;&lt;p style=&quot;align:left;margin-left:0;margin-right:0;margin-top:0px;margin-bottom:0px;text-indent:0;valign:middle;direction:ltr;&quot;&gt;&lt;font style=&quot;font-size:8.47px;font-family:Segoe UI;color:#000000;direction:ltr;letter-spacing:0px;line-height:120%;opacity:1&quot;&gt;0&lt;br/&gt;&lt;/font&gt;&lt;/p&gt;&lt;/div&gt;" style="verticalAlign=middle;align=left;vsdxID=288;fillColor=none;gradientColor=none;strokeColor=none;points=[];labelBackgroundColor=none;rounded=0;html=1;whiteSpace=wrap;" vertex="1" parent="qeAfjZBKAGT_agbKlzHL-101">
          <mxGeometry x="6" y="6" width="11" height="10" as="geometry" />
        </mxCell>
        <mxCell id="qeAfjZBKAGT_agbKlzHL-104" value="&lt;div style=&quot;font-size: 1px&quot;&gt;&lt;p style=&quot;align:left;margin-left:0;margin-right:0;margin-top:0px;margin-bottom:0px;text-indent:0;valign:middle;direction:ltr;&quot;&gt;&lt;font style=&quot;font-size:8.47px;font-family:Segoe UI;color:#000000;direction:ltr;letter-spacing:0px;line-height:120%;opacity:1&quot;&gt;1&lt;br/&gt;&lt;/font&gt;&lt;/p&gt;&lt;/div&gt;" style="verticalAlign=middle;align=left;vsdxID=289;fillColor=none;gradientColor=none;strokeColor=none;points=[];labelBackgroundColor=none;rounded=0;html=1;whiteSpace=wrap;" vertex="1" parent="qeAfjZBKAGT_agbKlzHL-101">
          <mxGeometry x="6" y="19" width="8" height="11" as="geometry" />
        </mxCell>
        <mxCell id="qeAfjZBKAGT_agbKlzHL-105" value="&lt;div style=&quot;font-size: 1px&quot;&gt;&lt;/div&gt;" style="verticalAlign=middle;align=center;vsdxID=300;fillColor=#d8d8d8;gradientColor=none;shape=stencil(nZBLDoAgDERP0z3SIyjew0SURgSD+Lu9kMZoXLhwN9O+tukAlrNpJg1SzDH4QW/URgNYgZTkjA4UkwJUgGXng+6DX1zLfmoymdXo17xh5zmRJ6Q42BWCfc2oJfdAr+Yv+AP9Cb7OJ3H/2JG1HNGz/84klThPVCc=);strokeColor=#17355d;points=[];labelBackgroundColor=none;rounded=0;html=1;whiteSpace=wrap;" vertex="1" parent="1">
          <mxGeometry x="620" y="60" width="11" height="171" as="geometry" />
        </mxCell>
        <mxCell id="qeAfjZBKAGT_agbKlzHL-106" style="vsdxID=301;fillColor=#d8d8d8;gradientColor=none;shape=stencil(UzV2Ls5ILEhVNTIoLinKz04tz0wpyVA1dlE1MsrMy0gtyiwBslSNXVWNndPyi1LTi/JL81Ig/IJEkEoQKze/DGRCBUSfAUiHkUElhGdpomdoBBZxgyjOycxDUmxioWdqgaLBALdiQwNUs2F8qGIgA+EmiHeQ5dDdDxSC+N3YFQA=);strokeColor=#17355d;flipV=1;points=[];labelBackgroundColor=#ffffff;rounded=0;html=1;whiteSpace=wrap;" vertex="1" parent="1">
          <mxGeometry x="620" y="60" width="10" height="6" as="geometry" />
        </mxCell>
        <mxCell id="qeAfjZBKAGT_agbKlzHL-107" style="vsdxID=303;fillColor=#d8d8d8;gradientColor=none;shape=stencil(nZBLDoAgDERP0z3SIyjew0SURgSD+Lu9kMZoXLhwN9O+tukAlrNpJg1SzDH4QW/URgNYgZTkjA4UkwJUgGXng+6DX1zLfmoymdXo17xh5zmRJ6Q42BWCfc2oJfdAr+Yv+AP9Cb7OJ3H/2JG1HNGz/84klThPVCc=);strokeColor=#17355d;flipV=1;points=[];labelBackgroundColor=none;rounded=0;html=1;whiteSpace=wrap;" vertex="1" parent="1">
          <mxGeometry x="620" y="295" width="11" height="25" as="geometry" />
        </mxCell>
        <mxCell id="qeAfjZBKAGT_agbKlzHL-108" style="vsdxID=304;fillColor=#d8d8d8;gradientColor=none;shape=stencil(UzV2Ls5ILEhVNTIoLinKz04tz0wpyVA1dlE1MsrMy0gtyiwBslSNXVWNndPyi1LTi/JL81Ig/IJEkEoQKze/DGRCBUSfAUiHkUElhGdpomdoBBZxgyjOycxDUmxioWdqgaLBALdiQwNUs2F8qGIgA+EmiHeQ5dDdDxSC+N3YFQA=);strokeColor=#17355d;flipV=1;points=[];labelBackgroundColor=#ffffff;rounded=0;html=1;whiteSpace=wrap;" vertex="1" parent="1">
          <mxGeometry x="620" y="295" width="10" height="6" as="geometry" />
        </mxCell>
        <mxCell id="qeAfjZBKAGT_agbKlzHL-109" style="vsdxID=306;fillColor=#d8d8d8;gradientColor=none;shape=stencil(nZBLDoAgDERP0z3SIyjew0SURgSD+Lu9kMZoXLhwN9O+tukAlrNpJg1SzDH4QW/URgNYgZTkjA4UkwJUgGXng+6DX1zLfmoymdXo17xh5zmRJ6Q42BWCfc2oJfdAr+Yv+AP9Cb7OJ3H/2JG1HNGz/84klThPVCc=);strokeColor=#17355d;flipV=1;points=[];labelBackgroundColor=none;rounded=0;html=1;whiteSpace=wrap;" vertex="1" parent="1">
          <mxGeometry x="516" y="282" width="11" height="45" as="geometry" />
        </mxCell>
        <mxCell id="qeAfjZBKAGT_agbKlzHL-110" style="vsdxID=307;fillColor=#d8d8d8;gradientColor=none;shape=stencil(UzV2Ls5ILEhVNTIoLinKz04tz0wpyVA1dlE1MsrMy0gtyiwBslSNXVWNndPyi1LTi/JL81Ig/IJEkEoQKze/DGRCBUSfAUiHkUElhGdpomdoBBZxgyjOycxDUmxioWdqgaLBALdiQwNUs2F8qGIgA+EmiHeQ5dDdDxSC+N3YFQA=);strokeColor=#17355d;flipV=1;points=[];labelBackgroundColor=#ffffff;rounded=0;html=1;whiteSpace=wrap;" vertex="1" parent="1">
          <mxGeometry x="517" y="282" width="10" height="6" as="geometry" />
        </mxCell>
        <mxCell id="qeAfjZBKAGT_agbKlzHL-111" style="vsdxID=309;fillColor=#d8d8d8;gradientColor=none;shape=stencil(nZBLDoAgDERP0z3SIyjew0SURgSD+Lu9kMZoXLhwN9O+tukAlrNpJg1SzDH4QW/URgNYgZTkjA4UkwJUgGXng+6DX1zLfmoymdXo17xh5zmRJ6Q42BWCfc2oJfdAr+Yv+AP9Cb7OJ3H/2JG1HNGz/84klThPVCc=);strokeColor=#17355d;flipV=1;points=[];labelBackgroundColor=none;rounded=0;html=1;whiteSpace=wrap;" vertex="1" parent="1">
          <mxGeometry x="401" y="266" width="11" height="60" as="geometry" />
        </mxCell>
        <mxCell id="qeAfjZBKAGT_agbKlzHL-112" style="vsdxID=310;fillColor=#d8d8d8;gradientColor=none;shape=stencil(UzV2Ls5ILEhVNTIoLinKz04tz0wpyVA1dlE1MsrMy0gtyiwBslSNXVWNndPyi1LTi/JL81Ig/IJEkEoQKze/DGRCBUSfAUiHkUElhGdpomdoBBZxgyjOycxDUmxioWdqgaLBALdiQwNUs2F8qGIgA+EmiHeQ5dDdDxSC+N3YFQA=);strokeColor=#17355d;flipV=1;points=[];labelBackgroundColor=#ffffff;rounded=0;html=1;whiteSpace=wrap;" vertex="1" parent="1">
          <mxGeometry x="401" y="266" width="10" height="6" as="geometry" />
        </mxCell>
        <mxCell id="qeAfjZBKAGT_agbKlzHL-113" style="vsdxID=320;fillColor=#ccecff;gradientColor=none;shape=stencil(UzV2Ls5ILEhVNTIoLinKz04tz0wpyVA1dlE1MsrMy0gtyiwBslSNXVWNndPyi1LTi/JL81Ig/IJEkEoQKze/DGRCBUSfAUiHkUElhGdpomdoBBZxgyjOycxDUmxioWdqgaLBALdiQwNUs2F8qGIgA+EmiHeQ5dDdDxSC+N3YFQA=);strokeColor=#000000;flipV=1;points=[];labelBackgroundColor=#ffffff;rounded=0;html=1;whiteSpace=wrap;" vertex="1" parent="1">
          <mxGeometry x="579" y="118" width="12" height="6" as="geometry" />
        </mxCell>
        <mxCell id="qeAfjZBKAGT_agbKlzHL-114" style="vsdxID=140;fillColor=#d8d8d8;gradientColor=none;shape=stencil(nZBLDoAgDERP0z3SIyjew0SURgSD+Lu9kMZoXLhwN9O+tukAlrNpJg1SzDH4QW/URgNYgZTkjA4UkwJUgGXng+6DX1zLfmoymdXo17xh5zmRJ6Q42BWCfc2oJfdAr+Yv+AP9Cb7OJ3H/2JG1HNGz/84klThPVCc=);strokeColor=#000000;points=[];labelBackgroundColor=none;rounded=0;html=1;whiteSpace=wrap;" vertex="1" parent="1">
          <mxGeometry x="704" y="80" width="57" height="85" as="geometry" />
        </mxCell>
        <mxCell id="qeAfjZBKAGT_agbKlzHL-115" value="&lt;div style=&quot;font-size: 1px&quot;&gt;&lt;p style=&quot;align:left;margin-left:0;margin-right:0;margin-top:0px;margin-bottom:0px;text-indent:0;valign:middle;direction:ltr;&quot;&gt;&lt;font style=&quot;font-size:8.47px;font-family:Segoe UI;color:#000000;direction:ltr;letter-spacing:0px;line-height:120%;opacity:1&quot;&gt;WA&lt;br/&gt;&lt;/font&gt;&lt;/p&gt;&lt;/div&gt;" style="verticalAlign=middle;align=left;vsdxID=141;fillColor=none;gradientColor=none;strokeColor=none;points=[];labelBackgroundColor=none;rounded=0;html=1;whiteSpace=wrap;" vertex="1" parent="1">
          <mxGeometry x="704" y="84" width="31" height="25" as="geometry" />
        </mxCell>
        <mxCell id="qeAfjZBKAGT_agbKlzHL-116" value="&lt;div style=&quot;font-size: 1px&quot;&gt;&lt;p style=&quot;align:left;margin-left:0;margin-right:0;margin-top:0px;margin-bottom:0px;text-indent:0;valign:middle;direction:ltr;&quot;&gt;&lt;font style=&quot;font-size:8.47px;font-family:Segoe UI;color:#000000;direction:ltr;letter-spacing:0px;line-height:120%;opacity:1&quot;&gt;WD&lt;br/&gt;&lt;/font&gt;&lt;/p&gt;&lt;/div&gt;" style="verticalAlign=middle;align=left;vsdxID=142;fillColor=none;gradientColor=none;strokeColor=none;points=[];labelBackgroundColor=none;rounded=0;html=1;whiteSpace=wrap;" vertex="1" parent="1">
          <mxGeometry x="704" y="132" width="37" height="22" as="geometry" />
        </mxCell>
        <mxCell id="qeAfjZBKAGT_agbKlzHL-117" value="&lt;div style=&quot;font-size: 1px&quot;&gt;&lt;font style=&quot;font-size:8.47px;font-family:Segoe UI;color:#000000;direction:ltr;letter-spacing:0px;line-height:120%;opacity:1&quot;&gt;WE&lt;br/&gt;&lt;/font&gt;&lt;/div&gt;" style="verticalAlign=middle;align=center;vsdxID=143;fillColor=none;gradientColor=none;strokeColor=none;points=[];labelBackgroundColor=none;rounded=0;html=1;whiteSpace=wrap;" vertex="1" parent="1">
          <mxGeometry x="716" y="148" width="33" height="22" as="geometry" />
        </mxCell>
        <mxCell id="qeAfjZBKAGT_agbKlzHL-118" value="&lt;div style=&quot;font-size: 1px&quot;&gt;&lt;font style=&quot;font-size:11.29px;font-family:Segoe UI;color:#3f3f3f;direction:ltr;letter-spacing:0px;line-height:120%;opacity:1&quot;&gt;寄存器堆&lt;br/&gt;（写端口）&lt;br/&gt;&lt;/font&gt;&lt;/div&gt;" style="verticalAlign=middle;align=center;vsdxID=144;fillColor=none;gradientColor=none;strokeColor=none;points=[];labelBackgroundColor=none;rounded=0;html=1;whiteSpace=wrap;" vertex="1" parent="1">
          <mxGeometry x="698" y="107" width="70" height="25" as="geometry" />
        </mxCell>
        <mxCell id="qeAfjZBKAGT_agbKlzHL-119" style="vsdxID=321;fillColor=#ccecff;gradientColor=none;shape=stencil(UzV2Ls5ILEhVNTIoLinKz04tz0wpyVA1dlE1MsrMy0gtyiwBslSNXVWNndPyi1LTi/JL81Ig/IJEkEoQKze/DGRCBUSfAUiHkUElhGdpomdoBBZxgyjOycxDUmxioWdqgaLBALdiQwNUs2F8qGIgA+EmiHeQ5dDdDxSC+N3YFQA=);strokeColor=#000000;flipV=1;points=[];labelBackgroundColor=#ffffff;rounded=0;html=1;whiteSpace=wrap;" vertex="1" parent="1">
          <mxGeometry x="726" y="80" width="12" height="6" as="geometry" />
        </mxCell>
        <mxCell id="qeAfjZBKAGT_agbKlzHL-120" value="&lt;div style=&quot;font-size: 1px&quot;&gt;&lt;p style=&quot;align:left;margin-left:0;margin-right:0;margin-top:0px;margin-bottom:0px;text-indent:0;valign:middle;direction:ltr;&quot;&gt;&lt;font style=&quot;font-size:8.47px;font-family:Segoe UI;color:#000000;direction:ltr;letter-spacing:0px;line-height:120%;opacity:1&quot;&gt;4&lt;br/&gt;&lt;/font&gt;&lt;/p&gt;&lt;/div&gt;" style="verticalAlign=middle;align=left;vsdxID=124;fillColor=none;gradientColor=none;strokeColor=none;points=[];labelBackgroundColor=none;rounded=0;html=1;whiteSpace=wrap;" vertex="1" parent="1">
          <mxGeometry x="169" y="75" width="12" height="19" as="geometry" />
        </mxCell>
        <mxCell id="qeAfjZBKAGT_agbKlzHL-121" value="&lt;div style=&quot;font-size: 1px&quot;&gt;&lt;/div&gt;" style="verticalAlign=middle;align=center;vsdxID=297;fillColor=#d8d8d8;gradientColor=none;shape=stencil(nZBLDoAgDERP0z3SIyjew0SURgSD+Lu9kMZoXLhwN9O+tukAlrNpJg1SzDH4QW/URgNYgZTkjA4UkwJUgGXng+6DX1zLfmoymdXo17xh5zmRJ6Q42BWCfc2oJfdAr+Yv+AP9Cb7OJ3H/2JG1HNGz/84klThPVCc=);strokeColor=#17355d;points=[];labelBackgroundColor=none;rounded=0;html=1;whiteSpace=wrap;" vertex="1" parent="1">
          <mxGeometry x="516" y="60" width="11" height="171" as="geometry" />
        </mxCell>
        <mxCell id="qeAfjZBKAGT_agbKlzHL-122" style="vsdxID=298;fillColor=#d8d8d8;gradientColor=none;shape=stencil(UzV2Ls5ILEhVNTIoLinKz04tz0wpyVA1dlE1MsrMy0gtyiwBslSNXVWNndPyi1LTi/JL81Ig/IJEkEoQKze/DGRCBUSfAUiHkUElhGdpomdoBBZxgyjOycxDUmxioWdqgaLBALdiQwNUs2F8qGIgA+EmiHeQ5dDdDxSC+N3YFQA=);strokeColor=#17355d;flipV=1;points=[];labelBackgroundColor=#ffffff;rounded=0;html=1;whiteSpace=wrap;" vertex="1" parent="1">
          <mxGeometry x="517" y="60" width="10" height="6" as="geometry" />
        </mxCell>
        <mxCell id="qeAfjZBKAGT_agbKlzHL-123" style="vsdxID=294;fillColor=#d8d8d8;gradientColor=none;shape=stencil(nZBLDoAgDERP0z3SIyjew0SURgSD+Lu9kMZoXLhwN9O+tukAlrNpJg1SzDH4QW/URgNYgZTkjA4UkwJUgGXng+6DX1zLfmoymdXo17xh5zmRJ6Q42BWCfc2oJfdAr+Yv+AP9Cb7OJ3H/2JG1HNGz/84klThPVCc=);strokeColor=#17355d;points=[];labelBackgroundColor=none;rounded=0;html=1;whiteSpace=wrap;" vertex="1" parent="1">
          <mxGeometry x="401" y="60" width="11" height="171" as="geometry" />
        </mxCell>
        <mxCell id="qeAfjZBKAGT_agbKlzHL-124" style="vsdxID=295;fillColor=#d8d8d8;gradientColor=none;shape=stencil(UzV2Ls5ILEhVNTIoLinKz04tz0wpyVA1dlE1MsrMy0gtyiwBslSNXVWNndPyi1LTi/JL81Ig/IJEkEoQKze/DGRCBUSfAUiHkUElhGdpomdoBBZxgyjOycxDUmxioWdqgaLBALdiQwNUs2F8qGIgA+EmiHeQ5dDdDxSC+N3YFQA=);strokeColor=#17355d;flipV=1;points=[];labelBackgroundColor=#ffffff;rounded=0;html=1;whiteSpace=wrap;" vertex="1" parent="1">
          <mxGeometry x="401" y="60" width="10" height="6" as="geometry" />
        </mxCell>
        <mxCell id="qeAfjZBKAGT_agbKlzHL-125" value="&lt;div style=&quot;font-size: 1px&quot;&gt;&lt;/div&gt;" style="verticalAlign=middle;align=center;vsdxID=291;fillColor=#d8d8d8;gradientColor=none;shape=stencil(nZBLDoAgDERP0z3SIyjew0SURgSD+Lu9kMZoXLhwN9O+tukAlrNpJg1SzDH4QW/URgNYgZTkjA4UkwJUgGXng+6DX1zLfmoymdXo17xh5zmRJ6Q42BWCfc2oJfdAr+Yv+AP9Cb7OJ3H/2JG1HNGz/84klThPVCc=);strokeColor=#17355d;points=[];labelBackgroundColor=none;rounded=0;html=1;whiteSpace=wrap;" vertex="1" parent="1">
          <mxGeometry x="254" y="60" width="11" height="171" as="geometry" />
        </mxCell>
        <mxCell id="qeAfjZBKAGT_agbKlzHL-126" style="vsdxID=292;fillColor=#d8d8d8;gradientColor=none;shape=stencil(UzV2Ls5ILEhVNTIoLinKz04tz0wpyVA1dlE1MsrMy0gtyiwBslSNXVWNndPyi1LTi/JL81Ig/IJEkEoQKze/DGRCBUSfAUiHkUElhGdpomdoBBZxgyjOycxDUmxioWdqgaLBALdiQwNUs2F8qGIgA+EmiHeQ5dDdDxSC+N3YFQA=);strokeColor=#17355d;flipV=1;points=[];labelBackgroundColor=#ffffff;rounded=0;html=1;whiteSpace=wrap;" vertex="1" parent="1">
          <mxGeometry x="254" y="60" width="10" height="6" as="geometry" />
        </mxCell>
        <mxCell id="qeAfjZBKAGT_agbKlzHL-127" value="&lt;div style=&quot;font-size: 1px&quot;&gt;&lt;font style=&quot;font-size:11.29px;font-family:Segoe UI;color:#3f3f3f;direction:ltr;letter-spacing:0px;line-height:120%;opacity:1&quot;&gt;指令&lt;br/&gt;译码&lt;br/&gt;&lt;/font&gt;&lt;/div&gt;" style="verticalAlign=middle;align=center;vsdxID=126;fillColor=#FFFFFF;gradientColor=none;shape=stencil(vVPLcoMwDPwaH/H4UQKc0+Q/PIkBT1zMCKchfx8TkTaGeHpqbrJ2ZXllLZHboVW9JoINHtxJX8zRt0R+EiFM12owPkRE7ojc1g50A+7cHfHcq4k5RV/ue7phxLqyojyfqgS7YoYzdj/vka7gEDAYHyDlH0iHmV/RDSbGuP5xX+hQyJmRqdEMGTivvHEd4jPbKmh0FrpltVVNBA0XrftVen6fNZ1ONw/vFUVaTkXFQk1JizySsx4Qe58YWr5qnZCyWX0Ml5GU1GjeICW1Eq+XTFDBYy2c03y5Zsvh/Pz9/8v50zUh+HVcbaxFwz7jS4eGFLpb7m4=);strokeColor=#000000;flipV=1;points=[[0.5,0,0],[0.5,0,0],[0.5,0.5,0],[1,0.5,0],[0.5,0.5,0]];labelBackgroundColor=none;rounded=0;html=1;whiteSpace=wrap;" vertex="1" parent="1">
          <mxGeometry x="275" y="259" width="64" height="67" as="geometry" />
        </mxCell>
        <mxCell id="qeAfjZBKAGT_agbKlzHL-128" value="" style="group" vertex="1" connectable="0" parent="1">
          <mxGeometry x="192" y="77" width="21" height="41" as="geometry" />
        </mxCell>
        <mxCell id="qeAfjZBKAGT_agbKlzHL-129" style="vsdxID=313;rotation=270;fillColor=#ffffff;gradientColor=#ffffff;shape=stencil(UzV2Ls5ILEhVNTIoLinKz04tz0wpyVA1dlE1MsrMy0gtyiwBslSNXVWNndPyi1LTi/JL81Ig/IJEkEoQKze/DGRCBUSfAUiHkUElMs8NojAnMw9JoaGRnimKWkMDPKotzElRDZPE6gwgA+F4iL+R5dA9ChSCBJKxKwA=);strokeColor=#000000;points=[];labelBackgroundColor=none;rounded=0;html=1;whiteSpace=wrap;" vertex="1" parent="qeAfjZBKAGT_agbKlzHL-128">
          <mxGeometry x="-10" y="10" width="41" height="21" as="geometry" />
        </mxCell>
        <mxCell id="qeAfjZBKAGT_agbKlzHL-130" style="vsdxID=314;rotation=270;fillColor=#ffffff;gradientColor=#ffffff;shape=stencil(UzV2Ls5ILEhVNTIoLinKz04tz0wpyVA1dlE1MsrMy0gtyiwBslSNXVWNndPyi1LTi/JL81Ig/IJEkEoQKze/DGRCBUSfoYEBSI+RQSWED+G5QZTmZOYhKTU10zMyJVoxqrEwa7CqNTHWMyfaYDzOBTIQ3oSEELIcepAAhSDBaewKAA==);strokeColor=#000000;points=[];labelBackgroundColor=none;rounded=0;html=1;whiteSpace=wrap;" vertex="1" parent="qeAfjZBKAGT_agbKlzHL-128">
          <mxGeometry x="-19" y="19" width="41" height="3" as="geometry" />
        </mxCell>
        <mxCell id="qeAfjZBKAGT_agbKlzHL-131" value="&lt;div style=&quot;font-size: 1px&quot;&gt;&lt;font style=&quot;font-size:11.29px;font-family:Segoe UI;color:#000000;direction:ltr;letter-spacing:0px;line-height:120%;opacity:1&quot;&gt;+&lt;br/&gt;&lt;/font&gt;&lt;/div&gt;" style="verticalAlign=middle;align=center;vsdxID=315;rotation=270;fillColor=none;gradientColor=none;strokeColor=none;points=[];labelBackgroundColor=none;rounded=0;html=1;whiteSpace=wrap;" vertex="1" parent="qeAfjZBKAGT_agbKlzHL-128">
          <mxGeometry x="-3" y="13" width="31" height="15" as="geometry" />
        </mxCell>
        <mxCell id="qeAfjZBKAGT_agbKlzHL-132" value="" style="group" vertex="1" connectable="0" parent="1">
          <mxGeometry x="136" y="126" width="23" height="46" as="geometry" />
        </mxCell>
        <mxCell id="qeAfjZBKAGT_agbKlzHL-133" value="&lt;div style=&quot;font-size: 1px&quot;&gt;&lt;/div&gt;" style="verticalAlign=middle;align=center;vsdxID=122;fillColor=#FFFFFF;gradientColor=none;shape=stencil(nZBLDoAgDERP0z3SIyjew0SURgSD+Lu9kMZoXLhwN9O+tukAlrNpJg1SzDH4QW/URgNYgZTkjA4UkwJUgGXng+6DX1zLfmoymdXo17xh5zmRJ6Q42BWCfc2oJfdAr+Yv+AP9Cb7OJ3H/2JG1HNGz/84klThPVCc=);strokeColor=#000000;points=[];labelBackgroundColor=none;rounded=0;html=1;whiteSpace=wrap;" vertex="1" parent="qeAfjZBKAGT_agbKlzHL-132">
          <mxGeometry x="3" width="17" height="46" as="geometry" />
        </mxCell>
        <mxCell id="qeAfjZBKAGT_agbKlzHL-134" value="&lt;div style=&quot;font-size: 1px&quot;&gt;&lt;font style=&quot;font-size:8.47px;font-family:Segoe UI;color:#000000;direction:ltr;letter-spacing:0px;line-height:120%;opacity:1&quot;&gt;PC&lt;br/&gt;&lt;/font&gt;&lt;/div&gt;" style="verticalAlign=middle;align=center;vsdxID=123;fillColor=none;gradientColor=none;strokeColor=none;points=[];labelBackgroundColor=none;rounded=0;html=1;whiteSpace=wrap;" vertex="1" parent="qeAfjZBKAGT_agbKlzHL-132">
          <mxGeometry y="7" width="23" height="34" as="geometry" />
        </mxCell>
        <mxCell id="qeAfjZBKAGT_agbKlzHL-135" style="vsdxID=319;fillColor=#ccecff;gradientColor=none;shape=stencil(UzV2Ls5ILEhVNTIoLinKz04tz0wpyVA1dlE1MsrMy0gtyiwBslSNXVWNndPyi1LTi/JL81Ig/IJEkEoQKze/DGRCBUSfAUiHkUElhGdpomdoBBZxgyjOycxDUmxioWdqgaLBALdiQwNUs2F8qGIgA+EmiHeQ5dDdDxSC+N3YFQA=);strokeColor=#000000;flipV=1;points=[];labelBackgroundColor=#ffffff;rounded=0;html=1;whiteSpace=wrap;strokeWidth=1;" vertex="1" parent="qeAfjZBKAGT_agbKlzHL-132">
          <mxGeometry x="5" width="12" height="6" as="geometry" />
        </mxCell>
        <mxCell id="qeAfjZBKAGT_agbKlzHL-136" value="" style="group" vertex="1" connectable="0" parent="1">
          <mxGeometry x="477.5" y="82.5" width="25" height="50" as="geometry" />
        </mxCell>
        <mxCell id="qeAfjZBKAGT_agbKlzHL-137" style="vsdxID=316;rotation=270;fillColor=#ffffff;gradientColor=#ffffff;shape=stencil(UzV2Ls5ILEhVNTIoLinKz04tz0wpyVA1dlE1MsrMy0gtyiwBslSNXVWNndPyi1LTi/JL81Ig/IJEkEoQKze/DGRCBUSfAUiHkUElMs8NojAnMw9JoaGRnimKWkMDPKotzElRDZPE6gwgA+F4iL+R5dA9ChSCBJKxKwA=);strokeColor=#000000;points=[];labelBackgroundColor=none;rounded=0;html=1;whiteSpace=wrap;" vertex="1" parent="qeAfjZBKAGT_agbKlzHL-136">
          <mxGeometry x="-12.5" y="12.5" width="50" height="25" as="geometry" />
        </mxCell>
        <mxCell id="qeAfjZBKAGT_agbKlzHL-138" style="vsdxID=317;rotation=270;fillColor=#ffffff;gradientColor=#ffffff;shape=stencil(UzV2Ls5ILEhVNTIoLinKz04tz0wpyVA1dlE1MsrMy0gtyiwBslSNXVWNndPyi1LTi/JL81Ig/IJEkEoQKze/DGRCBUSfoYEBSI+RQSWED+G5QZTmZOYhKTU10zMyJVoxqrEwa7CqNTHWMyfaYDzOBTIQ3oSEELIcepAAhSDBaewKAA==);strokeColor=#000000;points=[];labelBackgroundColor=none;rounded=0;html=1;whiteSpace=wrap;" vertex="1" parent="qeAfjZBKAGT_agbKlzHL-136">
          <mxGeometry x="-23.5" y="23.5" width="50" height="3" as="geometry" />
        </mxCell>
        <mxCell id="qeAfjZBKAGT_agbKlzHL-139" value="&lt;div style=&quot;font-size: 1px&quot;&gt;&lt;font style=&quot;font-size:8.47px;font-family:Segoe UI;color:#000000;direction:ltr;letter-spacing:0px;line-height:120%;opacity:1&quot;&gt;ALU&lt;/font&gt;&lt;/div&gt;" style="verticalAlign=middle;align=center;vsdxID=318;rotation=90;fillColor=none;gradientColor=none;strokeColor=none;points=[];labelBackgroundColor=none;rounded=0;html=1;whiteSpace=wrap;" vertex="1" parent="qeAfjZBKAGT_agbKlzHL-136">
          <mxGeometry x="-7.5" y="14.5" width="42" height="22" as="geometry" />
        </mxCell>
        <mxCell id="qeAfjZBKAGT_agbKlzHL-140" value="" style="group" vertex="1" connectable="0" parent="1">
          <mxGeometry x="457.5" y="179.5" width="21.000000000000014" height="50" as="geometry" />
        </mxCell>
        <mxCell id="qeAfjZBKAGT_agbKlzHL-141" style="vsdxID=226;rotation=270;fillColor=#ffffff;gradientColor=#ffffff;shape=stencil(UzV2Ls5ILEhVNTIoLinKz04tz0wpyVA1dlE1MsrMy0gtyiwBslSNXVWNndPyi1LTi/JL81Ig/IJEkEoQKze/DGRCBUSfAUiHkUElMs8NojAnMw9JoaGRnimKWkMDPKotzElRDZPE6gwgA+F4iL+R5dA9ChSCBJKxKwA=);strokeColor=#000000;points=[];labelBackgroundColor=none;rounded=0;html=1;whiteSpace=wrap;" vertex="1" parent="qeAfjZBKAGT_agbKlzHL-140">
          <mxGeometry x="-14.499999999999995" y="14.500000000000004" width="50" height="21" as="geometry" />
        </mxCell>
        <mxCell id="qeAfjZBKAGT_agbKlzHL-142" style="vsdxID=249;rotation=270;fillColor=#ffffff;gradientColor=#ffffff;shape=stencil(UzV2Ls5ILEhVNTIoLinKz04tz0wpyVA1dlE1MsrMy0gtyiwBslSNXVWNndPyi1LTi/JL81Ig/IJEkEoQKze/DGRCBUSfoYEBSI+RQSWED+G5QZTmZOYhKTU10zMyJVoxqrEwa7CqNTHWMyfaYDzOBTIQ3oSEELIcepAAhSDBaewKAA==);strokeColor=#000000;points=[];labelBackgroundColor=none;rounded=0;html=1;whiteSpace=wrap;" vertex="1" parent="qeAfjZBKAGT_agbKlzHL-140">
          <mxGeometry x="-23.499999999999993" y="23.500000000000004" width="50" height="3" as="geometry" />
        </mxCell>
        <mxCell id="qeAfjZBKAGT_agbKlzHL-143" value="&lt;div style=&quot;font-size: 1px&quot;&gt;&lt;font style=&quot;font-size:11.29px;font-family:Segoe UI;color:#000000;direction:ltr;letter-spacing:0px;line-height:120%;opacity:1&quot;&gt;+&lt;br/&gt;&lt;/font&gt;&lt;/div&gt;" style="verticalAlign=middle;align=center;vsdxID=322;rotation=270;fillColor=none;gradientColor=none;strokeColor=none;points=[];labelBackgroundColor=none;rounded=0;html=1;whiteSpace=wrap;" vertex="1" parent="qeAfjZBKAGT_agbKlzHL-140">
          <mxGeometry x="-6.499999999999995" y="16.500000000000004" width="38" height="17" as="geometry" />
        </mxCell>
      </root>
    </mxGraphModel>
  </diagram>
</mxfile>
